<svg width="96" height="90" viewBox="0 0 96 90" fill="none" xmlns="http://www.w3.org/2000/svg">
<path fill-rule="evenodd" clip-rule="evenodd" d="M95.9882 28.8708C95.7776 21.5213 92.7637 14.5308 87.5643 9.33215C82.3605 4.12771 75.3609 1.1141 68.004 0.910579C60.647 0.707062 53.4915 3.32911 48.0079 8.23789C42.5265 3.32861 35.3737 0.703985 28.0179 0.902864C20.6622 1.10174 13.6616 4.10903 8.45346 9.30734C3.24533 14.5056 0.224823 21.5005 0.0120526 28.8559C-0.200718 36.2113 2.41039 43.3691 7.30932 48.8597L47.9983 89.616L75.0089 62.5672H61.4458L48.0031 76.0289L14.3116 42.2846C11.1267 38.6165 9.45079 33.8773 9.62179 29.0225C9.79279 24.1677 11.798 19.5582 15.2331 16.1233C18.5745 12.7825 23.0303 10.7911 27.7481 10.5299C32.4658 10.2687 37.1143 11.756 40.8041 14.7074L41.1976 15.0386L27.6394 28.6064L34.4305 35.3927L54.5975 15.221C58.2635 12.0319 63.0025 10.3516 67.8587 10.5191C72.7149 10.6865 77.3269 12.6892 80.7646 16.1233C84.2023 19.5573 86.2099 24.1672 86.3825 29.0232C86.5551 33.8792 84.8799 38.6199 81.6947 42.2894L80.9776 43.0075H92.7384C94.9923 38.6839 96.1301 33.8222 95.9882 28.8708Z" fill="url(#paint0_linear_1_3642)"/>
<mask id="path-2-outside-1_1_3642" maskUnits="userSpaceOnUse" x="56.2319" y="39.283" width="37" height="22" fill="black">
<rect fill="white" x="56.2319" y="39.283" width="37" height="22"/>
<path fill-rule="evenodd" clip-rule="evenodd" d="M70.505 42.2831C70.8784 42.2857 71.2401 42.3501 71.5361 42.4666C71.8321 42.5831 72.0465 42.7455 72.1473 42.9294L78.5038 54.4929L81.8403 49.941C81.964 49.7722 82.1853 49.6268 82.4747 49.5241C82.7642 49.4215 83.108 49.3664 83.4602 49.3663H88.6519C89.1109 49.3663 89.5511 49.4596 89.8757 49.6257C90.2002 49.7917 90.3825 50.0169 90.3825 50.2517C90.3825 50.4866 90.2002 50.7118 89.8757 50.8778C89.5511 51.0439 89.1109 51.1372 88.6519 51.1372H84.6595L79.8882 57.6458C79.7602 57.8205 79.5276 57.9701 79.2234 58.0732C78.9193 58.1763 78.5593 58.2275 78.1949 58.2197C77.8304 58.2118 77.4801 58.1453 77.194 58.0295C76.9079 57.9137 76.7007 57.7546 76.6019 57.575L70.3942 46.2798L67.8053 50.5156C67.6954 50.6957 67.476 50.8531 67.179 50.9649C66.882 51.0767 66.523 51.137 66.1543 51.1372H60.9625C60.5035 51.1372 60.0634 51.0439 59.7388 50.8778C59.4143 50.7118 59.2319 50.4866 59.2319 50.2517C59.2319 50.0169 59.4143 49.7917 59.7388 49.6257C60.0634 49.4596 60.5035 49.3663 60.9625 49.3663H64.8823L68.828 42.9046C68.9394 42.7221 69.1632 42.5629 69.4662 42.4508C69.7691 42.3388 70.1347 42.2799 70.5085 42.2831"/>
</mask>
<path fill-rule="evenodd" clip-rule="evenodd" d="M70.505 42.2831C70.8784 42.2857 71.2401 42.3501 71.5361 42.4666C71.8321 42.5831 72.0465 42.7455 72.1473 42.9294L78.5038 54.4929L81.8403 49.941C81.964 49.7722 82.1853 49.6268 82.4747 49.5241C82.7642 49.4215 83.108 49.3664 83.4602 49.3663H88.6519C89.1109 49.3663 89.5511 49.4596 89.8757 49.6257C90.2002 49.7917 90.3825 50.0169 90.3825 50.2517C90.3825 50.4866 90.2002 50.7118 89.8757 50.8778C89.5511 51.0439 89.1109 51.1372 88.6519 51.1372H84.6595L79.8882 57.6458C79.7602 57.8205 79.5276 57.9701 79.2234 58.0732C78.9193 58.1763 78.5593 58.2275 78.1949 58.2197C77.8304 58.2118 77.4801 58.1453 77.194 58.0295C76.9079 57.9137 76.7007 57.7546 76.6019 57.575L70.3942 46.2798L67.8053 50.5156C67.6954 50.6957 67.476 50.8531 67.179 50.9649C66.882 51.0767 66.523 51.137 66.1543 51.1372H60.9625C60.5035 51.1372 60.0634 51.0439 59.7388 50.8778C59.4143 50.7118 59.2319 50.4866 59.2319 50.2517C59.2319 50.0169 59.4143 49.7917 59.7388 49.6257C60.0634 49.4596 60.5035 49.3663 60.9625 49.3663H64.8823L68.828 42.9046C68.9394 42.7221 69.1632 42.5629 69.4662 42.4508C69.7691 42.3388 70.1347 42.2799 70.5085 42.2831" fill="url(#paint1_linear_1_3642)"/>
<path d="M72.1473 42.9294L70.2413 43.9737L70.2428 43.9763L72.1473 42.9294ZM78.5038 54.4929L76.5993 55.5398L78.2413 58.527L80.2566 55.7777L78.5038 54.4929ZM81.8403 49.941L83.5932 51.2258L83.5935 51.2254L81.8403 49.941ZM83.4602 49.3663V47.193H83.4598L83.4602 49.3663ZM84.6595 51.1372V48.9639H83.5579L82.9067 49.8523L84.6595 51.1372ZM79.8882 57.6458L78.1355 56.3609L78.135 56.3615L79.8882 57.6458ZM76.6019 57.575L74.6972 58.6217L74.6977 58.6225L76.6019 57.575ZM70.3942 46.2798L72.2988 45.2331L70.4941 41.9492L68.5399 45.1464L70.3942 46.2798ZM67.8053 50.5156L65.9509 49.3822L65.9501 49.3836L67.8053 50.5156ZM66.1543 51.1372V53.3105H66.1549L66.1543 51.1372ZM59.2319 50.2517H57.0586H59.2319ZM64.8823 49.3663V51.5396H66.1017L66.7371 50.499L64.8823 49.3663ZM68.828 42.9046L70.6829 44.0373L70.6835 44.0362L68.828 42.9046ZM70.4895 44.4563C70.5581 44.4568 70.6195 44.4631 70.6687 44.4718C70.7194 44.4808 70.7427 44.4899 70.7402 44.4889L72.332 40.4443C71.7482 40.2145 71.1155 40.1141 70.5204 40.1098L70.4895 44.4563ZM70.7402 44.4889C70.7379 44.488 70.7248 44.4827 70.7028 44.4708C70.6811 44.4589 70.6463 44.4382 70.6029 44.4053C70.5229 44.3447 70.371 44.2104 70.2413 43.9737L74.0533 41.8852C73.6098 41.0757 72.8668 40.6548 72.332 40.4443L70.7402 44.4889ZM70.2428 43.9763L76.5993 55.5398L80.4083 53.4459L74.0518 41.8825L70.2428 43.9763ZM80.2566 55.7777L83.5932 51.2258L80.0875 48.6561L76.7509 53.208L80.2566 55.7777ZM83.5935 51.2254C83.4696 51.3945 83.3476 51.4855 83.2888 51.5241C83.2268 51.5648 83.1925 51.5755 83.2013 51.5724L81.7481 47.4759C81.2301 47.6597 80.5633 48.0068 80.0872 48.6565L83.5935 51.2254ZM83.2013 51.5724C83.2261 51.5636 83.32 51.5397 83.4606 51.5396L83.4598 47.193C82.8959 47.1931 82.3022 47.2793 81.7481 47.4759L83.2013 51.5724ZM83.4602 51.5396H88.6519V47.193H83.4602V51.5396ZM88.6519 51.5396C88.7374 51.5396 88.8108 51.5486 88.8637 51.5598C88.9204 51.5718 88.9241 51.58 88.8858 51.5604L90.8655 47.6909C90.1655 47.3327 89.3681 47.193 88.6519 47.193V51.5396ZM88.8858 51.5604C88.854 51.5442 88.7137 51.4683 88.5617 51.2804C88.3996 51.0803 88.2092 50.7266 88.2092 50.2517H92.5558C92.5558 48.8032 91.4768 48.0036 90.8655 47.6909L88.8858 51.5604ZM88.2092 50.2517C88.2092 49.7769 88.3996 49.4232 88.5617 49.2231C88.7137 49.0352 88.854 48.9593 88.8858 48.943L90.8655 52.8126C91.4768 52.4999 92.5558 51.7003 92.5558 50.2517H88.2092ZM88.8858 48.943C88.9241 48.9234 88.9204 48.9317 88.8637 48.9437C88.8108 48.9549 88.7374 48.9639 88.6519 48.9639V53.3105C89.3681 53.3105 90.1655 53.1708 90.8655 52.8126L88.8858 48.943ZM88.6519 48.9639H84.6595V53.3105H88.6519V48.9639ZM82.9067 49.8523L78.1355 56.3609L81.641 58.9307L86.4123 52.4221L82.9067 49.8523ZM78.135 56.3615C78.263 56.1867 78.3892 56.0952 78.4465 56.0583C78.5077 56.019 78.5394 56.0103 78.5259 56.0149L79.921 60.1315C80.4548 59.9506 81.1502 59.6008 81.6415 58.93L78.135 56.3615ZM78.5259 56.0149C78.4914 56.0266 78.3871 56.05 78.2417 56.0469L78.148 60.3925C78.7316 60.4051 79.3473 60.326 79.921 60.1315L78.5259 56.0149ZM78.2417 56.0469C78.1751 56.0455 78.1166 56.0387 78.0709 56.03C78.0237 56.021 78.0039 56.0127 78.0094 56.0149L76.3787 60.044C76.9491 60.2749 77.5667 60.38 78.148 60.3925L78.2417 56.0469ZM78.0094 56.0149C78.0125 56.0162 78.0678 56.0383 78.151 56.1021C78.2313 56.1638 78.3791 56.2967 78.506 56.5274L74.6977 58.6225C75.1328 59.4134 75.8537 59.8316 76.3787 60.044L78.0094 56.0149ZM78.5065 56.5282L72.2988 45.2331L68.4896 47.3266L74.6972 58.6217L78.5065 56.5282ZM68.5399 45.1464L65.9509 49.3822L69.6596 51.649L72.2486 47.4132L68.5399 45.1464ZM65.9501 49.3836C66.0804 49.1701 66.2232 49.0518 66.2955 49C66.335 48.9716 66.3658 48.9541 66.3843 48.9445C66.403 48.9348 66.4133 48.931 66.4133 48.931L67.9447 52.9988C68.4771 52.7984 69.1989 52.404 69.6605 51.6476L65.9501 49.3836ZM66.4133 48.931C66.4134 48.9309 66.4064 48.9335 66.3919 48.9373C66.3775 48.9411 66.3579 48.9455 66.3332 48.9497C66.2828 48.9582 66.2213 48.9638 66.1537 48.9639L66.1549 53.3105C66.7434 53.3103 67.367 53.2163 67.9447 52.9988L66.4133 48.931ZM66.1543 48.9639H60.9625V53.3105H66.1543V48.9639ZM60.9625 48.9639C60.8771 48.9639 60.8036 48.9549 60.7508 48.9437C60.6941 48.9317 60.6904 48.9234 60.7287 48.943L58.7489 52.8126C59.449 53.1708 60.2464 53.3105 60.9625 53.3105V48.9639ZM60.7287 48.943C60.7605 48.9593 60.9007 49.0352 61.0528 49.2231C61.2148 49.4232 61.4052 49.7769 61.4052 50.2517H57.0586C57.0586 51.7003 58.1376 52.4999 58.7489 52.8126L60.7287 48.943ZM61.4052 50.2517C61.4052 50.7266 61.2148 51.0803 61.0528 51.2804C60.9007 51.4683 60.7605 51.5442 60.7287 51.5604L58.7489 47.6909C58.1376 48.0036 57.0586 48.8032 57.0586 50.2517H61.4052ZM60.7287 51.5604C60.6904 51.58 60.6941 51.5718 60.7508 51.5598C60.8036 51.5486 60.8771 51.5396 60.9625 51.5396V47.193C60.2464 47.193 59.449 47.3327 58.7489 47.6909L60.7287 51.5604ZM60.9625 51.5396H64.8823V47.193H60.9625V51.5396ZM66.7371 50.499L70.6829 44.0373L66.9732 41.772L63.0275 48.2337L66.7371 50.499ZM70.6835 44.0362C70.5515 44.2526 70.4066 44.3713 70.3348 44.4224C70.2593 44.4761 70.2139 44.4914 70.2201 44.4892L68.7122 40.4125C68.1739 40.6116 67.4397 41.0071 66.9726 41.773L70.6835 44.0362ZM70.2201 44.4892C70.2403 44.4817 70.3391 44.455 70.4902 44.4563L70.5267 40.1099C69.9303 40.1049 69.2978 40.1959 68.7122 40.4125L70.2201 44.4892Z" fill="url(#paint2_linear_1_3642)" mask="url(#path-2-outside-1_1_3642)"/>
<defs>
<linearGradient id="paint0_linear_1_3642" x1="38.0827" y1="35.9702" x2="113.058" y2="116.499" gradientUnits="userSpaceOnUse">
<stop stop-color="#EFEFEF"/>
<stop offset="1" stop-color="#E9E9E9" stop-opacity="0"/>
</linearGradient>
<linearGradient id="paint1_linear_1_3642" x1="71.5892" y1="48.584" x2="82.5863" y2="69.9206" gradientUnits="userSpaceOnUse">
<stop stop-color="#EFEFEF"/>
<stop offset="1" stop-color="#E9E9E9" stop-opacity="0"/>
</linearGradient>
<linearGradient id="paint2_linear_1_3642" x1="74.8072" y1="42.283" x2="74.8072" y2="58.2205" gradientUnits="userSpaceOnUse">
<stop stop-color="#EFEFEF"/>
<stop offset="1" stop-color="#E9E9E9" stop-opacity="0"/>
</linearGradient>
</defs>
</svg>
