<svg width="19" height="18" viewBox="0 0 19 18" fill="none" xmlns="http://www.w3.org/2000/svg">
<path d="M1 8.79482C1 5.70066 1 4.15317 1.96164 3.19235C2.92246 2.23071 4.46995 2.23071 7.5641 2.23071H10.8462C13.9403 2.23071 15.4878 2.23071 16.4486 3.19235C17.4103 4.15317 17.4103 5.70066 17.4103 8.79482V10.4358C17.4103 13.53 17.4103 15.0775 16.4486 16.0383C15.4878 16.9999 13.9403 16.9999 10.8462 16.9999H7.5641C4.46995 16.9999 2.92246 16.9999 1.96164 16.0383C1 15.0775 1 13.53 1 10.4358V8.79482Z" stroke="#E2E2E2" stroke-width="1.23077"/>
<path opacity="0.5" d="M5.10256 2.23077V1M13.3077 2.23077V1M1 6.33333H17.4103" stroke="#E2E2E2" stroke-width="1.23077" stroke-linecap="round"/>
<path d="M6.74365 10.8462L7.97442 9.61548V12.8975" stroke="#E2E2E2" stroke-width="1.23077" stroke-linecap="round" stroke-linejoin="round"/>
<path d="M10.0259 12.077V10.436C10.0259 10.2184 10.1123 10.0097 10.2662 9.8558C10.4201 9.70193 10.6288 9.61548 10.8464 9.61548C11.064 9.61548 11.2727 9.70193 11.4266 9.8558C11.5805 10.0097 11.6669 10.2184 11.6669 10.436V12.077C11.6669 12.2946 11.5805 12.5033 11.4266 12.6572C11.2727 12.8111 11.064 12.8975 10.8464 12.8975C10.6288 12.8975 10.4201 12.8111 10.2662 12.6572C10.1123 12.5033 10.0259 12.2946 10.0259 12.077Z" stroke="#E2E2E2" stroke-width="1.23077" stroke-linecap="round"/>
</svg>
