<svg width="18" height="18" viewBox="0 0 18 18" fill="none" xmlns="http://www.w3.org/2000/svg">
<path d="M16.9616 0H12.8078C12.5324 0 12.2683 0.109406 12.0736 0.30415C11.8788 0.498894 11.7694 0.763024 11.7694 1.03843C11.7694 1.31384 11.8788 1.57797 12.0736 1.77272C12.2683 1.96746 12.5324 2.07687 12.8078 2.07687H14.452L11.6206 4.91006C10.1486 3.81 8.31464 3.30825 6.48769 3.50578C4.66073 3.7033 2.97639 4.58544 1.77357 5.97468C0.570752 7.36393 -0.0612669 9.15718 0.00468777 10.9936C0.0706425 12.83 0.829676 14.5733 2.12905 15.8727C3.42843 17.1721 5.17172 17.9311 7.00814 17.997C8.84455 18.063 10.6378 17.431 12.027 16.2282C13.4163 15.0253 14.2984 13.341 14.496 11.514C14.6935 9.68709 14.1917 7.85313 13.0917 6.38117L15.9231 3.54798V5.19217C15.9231 5.46758 16.0325 5.73171 16.2273 5.92645C16.422 6.12119 16.6862 6.2306 16.9616 6.2306C17.237 6.2306 17.5011 6.12119 17.6959 5.92645C17.8906 5.73171 18 5.46758 18 5.19217V1.03843C18 0.763024 17.8906 0.498894 17.6959 0.30415C17.5011 0.109406 17.237 0 16.9616 0ZM10.9395 14.4048C10.2133 15.1307 9.28814 15.625 8.28102 15.8252C7.27389 16.0254 6.23003 15.9224 5.28141 15.5294C4.33278 15.1363 3.522 14.4708 2.95157 13.617C2.38114 12.7632 2.07668 11.7595 2.07668 10.7326C2.07668 9.70582 2.38114 8.70205 2.95157 7.84825C3.522 6.99444 4.33278 6.32895 5.28141 5.9359C6.23003 5.54286 7.27389 5.43992 8.28102 5.64009C9.28814 5.84026 10.2133 6.33455 10.9395 7.06048C11.9116 8.03538 12.4574 9.35593 12.4574 10.7326C12.4574 12.1094 11.9116 13.4299 10.9395 14.4048Z" fill="url(#paint0_linear_1_3710)"/>
<defs>
<linearGradient id="paint0_linear_1_3710" x1="-5" y1="0" x2="18" y2="25.5" gradientUnits="userSpaceOnUse">
<stop stop-color="#E7E7E7" stop-opacity="0.85"/>
<stop offset="1" stop-color="#F2F2F2" stop-opacity="0.87"/>
</linearGradient>
</defs>
</svg>
