<svg width="15" height="20" viewBox="0 0 15 20" fill="none" xmlns="http://www.w3.org/2000/svg">
<path d="M8.00133 5.75288C8.00133 5.55402 8.08032 5.36331 8.22094 5.22269C8.36155 5.08208 8.55226 5.00308 8.75112 5.00308H13.9817C14.1299 5.00321 14.2747 5.04726 14.3979 5.12965C14.5211 5.21205 14.6171 5.32911 14.6738 5.46603C14.7305 5.60296 14.7453 5.75361 14.7165 5.89897C14.6876 6.04433 14.6163 6.17788 14.5116 6.28273L11.7363 9.05898C12.2862 9.15595 12.793 9.31191 13.2279 9.54185C14.1327 10.0187 14.7315 10.8255 14.7315 11.9592C14.7315 12.9249 14.2606 13.7087 13.5598 14.2286C12.873 14.7394 11.9732 14.9984 11.0395 14.9984C9.67287 14.9984 8.76612 14.4705 8.37323 14.2426C8.20128 14.1425 8.07614 13.9782 8.02533 13.7858C7.97452 13.5935 8.00221 13.3888 8.1023 13.2168C8.20239 13.0449 8.36669 12.9198 8.55905 12.8689C8.75141 12.8181 8.95607 12.8458 9.12802 12.9459C9.45893 13.1389 10.0808 13.4988 11.0395 13.4988C11.7123 13.4988 12.2822 13.3108 12.6661 13.0259C13.036 12.751 13.2319 12.3911 13.2319 11.9592C13.2319 11.4593 13.013 11.1234 12.5291 10.8685C11.9912 10.5846 11.1545 10.4256 10.0588 10.4256C9.91057 10.4255 9.76573 10.3814 9.64255 10.299C9.51937 10.2166 9.42336 10.0996 9.36667 9.96266C9.30997 9.82573 9.29512 9.67507 9.324 9.52971C9.35288 9.38436 9.42418 9.25081 9.52891 9.14595L12.1712 6.50267H8.75112C8.55226 6.50267 8.36155 6.42368 8.22094 6.28306C8.08032 6.14245 8.00133 5.95174 8.00133 5.75288ZM2.87972 13.2118C2.58164 13.1769 2.28022 13.2387 2.01993 13.3881C1.75964 13.5375 1.55426 13.7666 1.43411 14.0416C1.35058 14.2191 1.20085 14.3567 1.01702 14.4251C0.833196 14.4934 0.629908 14.487 0.450745 14.4072C0.271581 14.3275 0.130806 14.1807 0.0586001 13.9983C-0.0136054 13.816 -0.0114922 13.6126 0.0644865 13.4318C0.314266 12.8654 0.738835 12.3939 1.27601 12.0862C1.81319 11.7786 2.43476 11.651 3.04967 11.7223C3.63851 11.7822 4.18836 12.0452 4.60625 12.4651C5.04013 12.9109 5.29106 13.5228 5.29106 14.2426C5.29106 15.8831 4.03741 16.6789 3.17164 17.2278C2.63379 17.5687 1.99196 17.9216 1.67705 18.5004H4.74921C4.94807 18.5004 5.13878 18.5794 5.2794 18.72C5.42001 18.8606 5.49901 19.0513 5.49901 19.2502C5.49901 19.4491 5.42001 19.6398 5.2794 19.7804C5.13878 19.921 4.94807 20 4.74921 20H0.7503C0.551441 20 0.360728 19.921 0.220114 19.7804C0.0794998 19.6398 0.000503762 19.4491 0.000503762 19.2502C0.000503762 17.4517 1.33714 16.6209 2.24289 16.0411C3.27461 15.3823 3.79247 15.0104 3.79247 14.2416C3.79247 13.8867 3.6765 13.6577 3.53254 13.5098C3.35594 13.3385 3.12477 13.2333 2.87972 13.2118ZM3.11366 0.0944175C3.23064 0.159356 3.32812 0.254418 3.39598 0.369738C3.46384 0.485058 3.4996 0.616436 3.49955 0.750239V6.99854H4.75121C4.95007 6.99854 5.14078 7.07754 5.2814 7.21815C5.42201 7.35876 5.50101 7.54948 5.50101 7.74833C5.50101 7.94719 5.42201 8.13791 5.2814 8.27852C5.14078 8.41913 4.95007 8.49813 4.75121 8.49813H0.7503C0.551441 8.49813 0.360728 8.41913 0.220114 8.27852C0.0794998 8.13791 0.000503762 7.94719 0.000503762 7.74833C0.000503762 7.54948 0.0794998 7.35876 0.220114 7.21815C0.360728 7.07754 0.551441 6.99854 0.7503 6.99854H1.99996V2.10287L1.14719 2.63573C0.97856 2.74112 0.774967 2.77521 0.581201 2.73049C0.387435 2.68578 0.219368 2.56592 0.113973 2.39729C0.00857813 2.22866 -0.0255112 2.02507 0.019204 1.8313C0.0639193 1.63753 0.183776 1.46947 0.352408 1.36407L2.35186 0.114412C2.46543 0.0431982 2.59603 0.00377489 2.73003 0.000257845C2.86403 -0.0032592 2.99651 0.029259 3.11366 0.0944175Z" fill="#CBD4DB"/>
</svg>
