<svg width="18" height="18" viewBox="0 0 18 18" fill="none" xmlns="http://www.w3.org/2000/svg">
<path d="M10.8245 1.25354C10.8489 1.16216 10.8911 1.0765 10.9487 1.00144C11.0063 0.926377 11.078 0.863394 11.16 0.816087C11.2419 0.768781 11.3323 0.738077 11.4261 0.72573C11.5199 0.713383 11.6151 0.719636 11.7065 0.744131C13.0413 1.09239 14.2591 1.79017 15.2345 2.7656C16.21 3.74103 16.9077 4.95885 17.256 6.29363C17.2805 6.38499 17.2868 6.48028 17.2744 6.57406C17.2621 6.66784 17.2314 6.75827 17.184 6.84018C17.1367 6.92209 17.0738 6.99388 16.9987 7.05143C16.9236 7.10899 16.838 7.1512 16.7466 7.17564C16.6858 7.19162 16.6232 7.19978 16.5603 7.19994C16.4016 7.19994 16.2474 7.14752 16.1216 7.05085C15.9958 6.95417 15.9054 6.81865 15.8646 6.66533C15.5805 5.5757 15.0111 4.58153 14.2148 3.7853C13.4186 2.98907 12.4244 2.41959 11.3348 2.13555C11.2433 2.11121 11.1576 2.06907 11.0824 2.01156C11.0073 1.95404 10.9442 1.88227 10.8968 1.80035C10.8494 1.71843 10.8186 1.62797 10.8062 1.53414C10.7938 1.44031 10.8 1.34496 10.8245 1.25354ZM10.6148 5.0156C11.8559 5.34681 12.6533 6.14422 12.9845 7.38534C13.0254 7.53866 13.1157 7.67418 13.2416 7.77086C13.3674 7.86754 13.5216 7.91995 13.6802 7.91995C13.7431 7.91979 13.8057 7.91163 13.8665 7.89565C13.9579 7.87121 14.0436 7.82901 14.1186 7.77145C14.1937 7.71389 14.2567 7.6421 14.304 7.56019C14.3513 7.47828 14.382 7.38785 14.3944 7.29408C14.4067 7.20029 14.4004 7.105 14.376 7.01364C13.9151 5.28921 12.7109 4.08499 10.9865 3.62418C10.8951 3.59977 10.7999 3.5936 10.7061 3.60601C10.6124 3.61843 10.522 3.64919 10.4401 3.69653C10.3583 3.74388 10.2865 3.80688 10.229 3.88195C10.1715 3.95702 10.1293 4.04268 10.1049 4.13404C10.0805 4.2254 10.0744 4.32068 10.0868 4.41442C10.0992 4.50817 10.1299 4.59856 10.1773 4.68042C10.2246 4.76228 10.2876 4.83401 10.3627 4.89152C10.4378 4.94903 10.5234 4.9912 10.6148 5.0156ZM17.9895 13.5973C17.829 14.8168 17.2301 15.9362 16.3046 16.7465C15.3791 17.5567 14.1903 18.0023 12.9602 18.0001C5.81411 18.0001 8.14392e-06 12.186 8.14392e-06 5.0399C-0.00219688 3.80984 0.443434 2.62104 1.25367 1.69553C2.06391 0.770023 3.18334 0.171097 4.40288 0.0106181C4.71128 -0.0270378 5.02358 0.0360542 5.29317 0.190476C5.56276 0.344897 5.77517 0.582366 5.89871 0.867433L7.79954 5.11101V5.12181C7.89412 5.34002 7.93318 5.57826 7.91324 5.81525C7.89329 6.05224 7.81496 6.2806 7.68524 6.47993C7.66904 6.50423 7.65194 6.52673 7.63394 6.54923L5.76011 8.77047C6.43422 10.1403 7.86704 11.5605 9.25487 12.2364L11.4455 10.3725C11.467 10.3544 11.4896 10.3376 11.513 10.3221C11.7122 10.1893 11.9413 10.1082 12.1797 10.0862C12.4181 10.0642 12.6582 10.1019 12.8783 10.1961L12.89 10.2015L17.13 12.1014C17.4156 12.2245 17.6536 12.4368 17.8086 12.7064C17.9635 12.976 18.027 13.2885 17.9895 13.5973ZM16.5603 13.4172H16.5504L12.3203 11.5227L10.1288 13.3866C10.1075 13.4047 10.0853 13.4215 10.0622 13.437C9.85496 13.5753 9.61542 13.6574 9.36696 13.6754C9.1185 13.6934 8.86963 13.6466 8.64466 13.5396C6.95893 12.7251 5.2786 11.0574 4.46318 9.38968C4.35521 9.16635 4.30676 8.91891 4.32253 8.67134C4.33829 8.42378 4.41775 8.18448 4.55319 7.97666C4.56845 7.95225 4.58561 7.92908 4.60449 7.90735L6.48012 5.68342L4.59009 1.45334C4.58973 1.44975 4.58973 1.44613 4.59009 1.44254C3.7173 1.55639 2.91595 1.9845 2.3361 2.64669C1.75625 3.30887 1.43767 4.15973 1.44003 5.0399C1.44337 8.09423 2.65817 11.0225 4.8179 13.1822C6.97764 15.342 9.90591 16.5568 12.9602 16.5601C13.8399 16.5631 14.6905 16.2457 15.3531 15.6671C16.0156 15.0885 16.4448 14.2884 16.5603 13.4163V13.4172Z" fill="url(#paint0_linear_1_3708)"/>
<defs>
<linearGradient id="paint0_linear_1_3708" x1="2.5" y1="-3" x2="21.5" y2="27" gradientUnits="userSpaceOnUse">
<stop stop-color="white"/>
<stop offset="1" stop-color="#FFFCFC" stop-opacity="0.72"/>
</linearGradient>
</defs>
</svg>
